<svg xmlns="http://www.w3.org/2000/svg" xmlns:xlink="http://www.w3.org/1999/xlink" viewBox="0 0 574.01 238.33">
   <defs>
      <linearGradient id="a" x1="-307.18" y1="1232.35" x2="-307.18" y2="1288.31" gradientTransform="translate(593.86 -1207.26)" gradientUnits="userSpaceOnUse">
         <stop offset="0" stop-color="#f1f3f2"/>
         <stop offset="0.19" stop-color="#a4b5d3"/>
         <stop offset="0.59" stop-color="#f1f3f2"/>
         <stop offset="0.6" stop-color="#5878b5"/>
         <stop offset="1" stop-color="#f1f3f2"/>
      </linearGradient>
      <linearGradient id="b" x1="-238.04" y1="8.04" x2="-238.04" y2="10.02" gradientTransform="translate(886.5 -92.32) scale(2.51 12.45)" gradientUnits="userSpaceOnUse">
         <stop offset="0" stop-color="#f1f3f2"/>
         <stop offset="0.9" stop-color="#a4b5d3"/>
         <stop offset="1" stop-color="#5878b5"/>
      </linearGradient>
      <linearGradient id="c" x1="-306.74" y1="1232.15" x2="-306.74" y2="1292.65" gradientTransform="translate(592.87 -1208.26)" xlink:href="#a"/>
   </defs>
   <path d="M480.37,84.05a202.45,202.45,0,0,0,23-1.4c6.88-.92,14.07-1.86,20.75-3.76a70.11,70.11,0,0,0,14.82-6.11c6.37-3.41,11.76-9.46,11.75-15.15,0-7-6.29-10.62-12.24-14A82,82,0,0,0,523.47,38a142.65,142.65,0,0,0-20.32-3.81,201.46,201.46,0,0,0-22.78-1.43c-7.32-.14-15,.15-22.32.32-5.65.13-11.16.39-16.81.31-8.36-.13-16.78-.44-25.12-1-5-.35-10.09-.81-15.06-1.41-5.65-.69-12.09-1.71-16.88-2.63a116.73,116.73,0,0,1-11.82-3c-3.85-1.12-7.76-2.36-11.48-3.86a56.84,56.84,0,0,1-6.67-3.22c-1.7-1-3.43-2.09-5.1-3.09s-3-1.91-4.68-2.72c-3.75-1.83-7.54-3.66-11.46-5.11a113.34,113.34,0,0,0-16-4.56A146.71,146.71,0,0,0,300.18.46C297.33.2,286.33,0,286.33,0s-11,.2-13.85.46a146.12,146.12,0,0,0-16.84,2.23,112.58,112.58,0,0,0-15.95,4.56c-3.92,1.45-7.71,3.28-11.46,5.11-1.65.81-3.12,1.77-4.69,2.72s-3.4,2.13-5.09,3.09a57.82,57.82,0,0,1-6.68,3.22,120.87,120.87,0,0,1-11.48,3.86,116.73,116.73,0,0,1-11.82,3c-4.79.92-11.23,1.94-16.88,2.63-5,.6-10.06,1.06-15.06,1.41-8.34.58-16.75.89-25.11,1-5.65.08-11.16-.18-16.81-.31-7.33-.17-15-.46-22.33-.32A201.6,201.6,0,0,0,69.5,34.14,143.93,143.93,0,0,0,49.19,38a82.06,82.06,0,0,0-15,5.66C28.28,47,22,50.63,22,57.63c0,5.69,5.38,11.74,11.75,15.15A70.71,70.71,0,0,0,48.56,78.9c6.68,1.89,13.87,2.83,20.75,3.75a202.59,202.59,0,0,0,23,1.4s322,.39,388.09,0Z"/>
   <path d="M269,38.89c-5.31-.33-10.61-.84-15.87-1.6-2.72-.4-5.42-1-8.12-1.55-1.73-.36-3.48-.69-5.19-1.17a65,65,0,0,1-9.52-3.22,86.44,86.44,0,0,1-10.1-6c-1.32-.91-1.86-1.56-2.43-1.56a6.82,6.82,0,0,0-2.08.65c-4.39,1.69-8.77,3.45-13.28,4.79a175.84,175.84,0,0,1-17.54,4.14c-5.84,1.1-11.74,1.87-17.65,2.5-6.88.72-13.78,1.11-20.69,1.43-5.8.26-11.62.33-17.43.39-7.89.07-15.79-.15-23.69-.06-7.52.08-15.06,0-22.55.56A142.6,142.6,0,0,0,62.33,41,66.86,66.86,0,0,0,47.17,46c-5.1,2.43-11.85,6.79-11.88,12.56s6.64,9.76,11.61,12.56c2.62,1.49,10.72,4,16.28,5.33a139.77,139.77,0,0,0,19.55,2.85c7.85.69,15.74.6,23.62.72H467c7.88-.12,15.77,0,23.62-.72a139.77,139.77,0,0,0,19.55-2.85c5.56-1.31,13.66-3.84,16.28-5.33,5-2.8,11.65-6.86,11.61-12.56S531.29,48.4,526.19,46A67.2,67.2,0,0,0,511,41a142.6,142.6,0,0,0-20.49-2.81c-7.49-.6-15-.48-22.54-.56-7.9-.09-15.8.13-23.7.06-5.81-.06-11.63-.13-17.43-.39-6.9-.32-13.81-.71-20.69-1.43-5.91-.63-11.81-1.4-17.65-2.5A175.84,175.84,0,0,1,371,29.26c-4.51-1.34-8.89-3.09-13.28-4.79a4.23,4.23,0,0,0-2.13-.52,11.09,11.09,0,0,0-2.38,1.43,67.51,67.51,0,0,1-10.1,6,64.61,64.61,0,0,1-9.52,3.22c-1.71.48-3.45.81-5.19,1.17-2.7.56-5.4,1.15-8.12,1.54-5.26.77-10.56,1.28-15.86,1.61-13.15.37-15.51.27-18.62.27-8.85,0-11.2.08-16.83-.27Z" style="fill:url(#a)"/>
   <path d="M341.58,20.9c0,6.89-23.78,12.48-53.11,12.48s-53.1-5.59-53.1-12.48,23.77-12.48,53.1-12.48S341.58,14,341.58,20.9Z" style="fill:url(#b)"/>
   <path d="M106.61,75.19c-7.88-.12-16.39,0-24.55-.64a90.06,90.06,0,0,1-15.19-2.14c-5.06-1.32-10.45-2.54-14.61-5.7-2.72-2.07-6.15-4.93-6.15-8.23,0-2.12,1.67-4,3.24-5.41,4.17-3.71,9.9-5.3,15.25-6.89,6.13-1.83,12.6-2.39,19-2.94,7.65-.67,15.51-.38,23-.46m359.2,32.41c7.88-.12,16.47,0,24.67-.64a90,90,0,0,0,15.18-2.14c5.06-1.32,10.45-2.54,14.61-5.7,2.73-2.07,6.15-4.93,6.15-8.23,0-2.12-1.67-4-3.24-5.41-4.16-3.71-9.9-5.3-15.24-6.89-6.14-1.83-12.6-2.39-19-2.94-7.69-.67-15.63-.38-23.15-.46"/>
   <path d="M103.36,42.78H466.9V75.19l-363-.11Z"/>
   <path d="M303.72,14.79c-.34,1.13-.69,2.27-1,3.42s-.69,2.3-1,3.46-.69,2.32-1,3.49l-1,3.51.51,0,.52,0,.51,0,.51,0c.35-1.13.69-2.26,1-3.38s.69-2.23,1-3.34q1-3.28,2.07-6.57a1.78,1.78,0,0,1,.17-.4,1,1,0,0,1,.26-.32,1.15,1.15,0,0,1,.33-.21,1,1,0,0,1,.77,0,.91.91,0,0,1,.33.22,1.23,1.23,0,0,1,.26.33,1.36,1.36,0,0,1,.17.41c.29.91.59,1.82.88,2.72s.59,1.8.88,2.68.58,1.78.88,2.65l.87,2.61-1.37.08-1.38.09-1.38.07-1.38.08v2c1.37-.09,2.73-.18,4.1-.29l2.05-.16,2-.18q-1.61-4.71-3.11-9.47c-.35-1.09-.7-2.18-1-3.28a3.67,3.67,0,0,0-.45-1,3.85,3.85,0,0,0-.73-.83,3.48,3.48,0,0,0-.94-.57,3.32,3.32,0,0,0-1.08-.24,2.88,2.88,0,0,0-1.09.15,3,3,0,0,0-.93.5,3.1,3.1,0,0,0-.73.8,3.93,3.93,0,0,0-.45,1Zm2.44,8.43.18-.58.18-.58.18-.57.18-.58.19.57.19.56.19.57c.06.19.12.38.19.56h-.37l-.37,0h-.74Zm-.3-6.61-.93,2.94-.93,3q-.47,1.48-.93,3l-.93,3,.6,0,.6,0,.6,0,.6,0,.39-1.24c.13-.42.25-.83.38-1.24l.39-1.24c.12-.41.25-.82.38-1.23v2.3l1.21-.06,1.2-.06,1.21-.07,1.21-.06-.72-2.18c-.73-2.23-1.45-4.47-2.16-6.7,0-.18-.1-.35-.16-.52a5.26,5.26,0,0,0-.25-.66,3.06,3.06,0,0,0-.31-.56.56.56,0,0,0-.37-.25.53.53,0,0,0-.37.23,2.69,2.69,0,0,0-.31.55,7.17,7.17,0,0,0-.4,1.17Zm-13.14-2h1.8l1.8,0h1.8l1.8,0V12.44l-1.85,0-1.84,0-1.84,0-1.84,0a3.25,3.25,0,0,0-1.4.31,3.47,3.47,0,0,0-1.14.87,3.81,3.81,0,0,0-.77,1.28,4.51,4.51,0,0,0-.29,1.58v8.47a4.26,4.26,0,0,0,.29,1.57,4,4,0,0,0,.77,1.29,3.4,3.4,0,0,0,1.14.86,3.18,3.18,0,0,0,1.4.31l1.85,0,1.84,0,1.84-.06,1.84-.07V18.09h-5.83v2.11h3.77v6.28l-1.28,0-1.29,0H294l-1.29,0a1.51,1.51,0,0,1-.66-.14,1.68,1.68,0,0,1-.54-.41,1.92,1.92,0,0,1-.37-.61,2.12,2.12,0,0,1-.14-.75V16.54a2.08,2.08,0,0,1,.14-.75,2,2,0,0,1,.36-.61,1.84,1.84,0,0,1,.55-.41,1.48,1.48,0,0,1,.66-.14Zm1.37,6.14v2.31h1.2v.57h-1.2a.51.51,0,0,1-.2,0,.61.61,0,0,1-.16-.12.72.72,0,0,1-.11-.19.54.54,0,0,1,0-.22v-5a.59.59,0,0,1,.15-.4.4.4,0,0,1,.16-.13.51.51,0,0,1,.2,0h5.83V15.27l-1.67,0-1.67,0h-3.34a1.56,1.56,0,0,0-.67.15,1.72,1.72,0,0,0-.54.4,2,2,0,0,0-.37.62,2.07,2.07,0,0,0-.14.74v6.93a2,2,0,0,0,.14.75,1.88,1.88,0,0,0,.37.61,1.84,1.84,0,0,0,.55.41,1.63,1.63,0,0,0,.66.14h1l1,0,1,0,1,0V20.75h-3.27Zm-13.18-6.1,1.8,0h1.8l1.8,0h1.79V12.31c-2.45,0-4.91,0-7.36.08a3.41,3.41,0,0,0-1.4.35,3.72,3.72,0,0,0-1.14.87,4.12,4.12,0,0,0-.77,1.27,4.25,4.25,0,0,0-.29,1.54v8.14a4.17,4.17,0,0,0,.29,1.54,4.22,4.22,0,0,0,.76,1.28,3.79,3.79,0,0,0,1.15.89,3.35,3.35,0,0,0,1.4.37l1.84.06,1.84,0,1.84,0,1.85,0V26.47q-1.8,0-3.6,0l-1.8,0-1.8,0a1.65,1.65,0,0,1-.66-.17,2.06,2.06,0,0,1-.55-.42,2.09,2.09,0,0,1-.5-1.35V16.58a1.94,1.94,0,0,1,.14-.73,1.72,1.72,0,0,1,.37-.61,1.66,1.66,0,0,1,1.2-.57Zm5.65,5.53V18.09h-4.79a.55.55,0,0,1,.31-.52.46.46,0,0,1,.2-.05h5.83V15.2h-6.68a1.73,1.73,0,0,0-.67.16,1.93,1.93,0,0,0-.54.41,2.07,2.07,0,0,0-.37.6,2.1,2.1,0,0,0-.13.74v3h6.84Zm0,.77v2.11h-2.4l-1.2,0h-1.19a.78.78,0,0,0,0,.22.6.6,0,0,0,.28.31.46.46,0,0,0,.2.05l1.45,0,2.92,0h1.46V26h-1.67l-1.67,0-1.67,0-1.67,0a1.75,1.75,0,0,1-.67-.17,1.68,1.68,0,0,1-.54-.42,2,2,0,0,1-.37-.61,2,2,0,0,1-.13-.74v-3l1.71,0h5.13ZM269,23.45l-1.08,0-1.07-.05-1.08,0-1.08-.05v1.87l1.65.11,1.64.09,3.29.18h.09a2.1,2.1,0,0,0,1.57-.67,2.48,2.48,0,0,0,.47-.76,2.53,2.53,0,0,0,.18-.94,2.73,2.73,0,0,0-.18-1,2.46,2.46,0,0,0-.5-.8,2.17,2.17,0,0,0-.73-.54,2.33,2.33,0,0,0-.9-.21h-2.59a3.22,3.22,0,0,1-1.78-1.84,2.74,2.74,0,0,1-.16-.89,2.69,2.69,0,0,1,.25-1.12,3.07,3.07,0,0,1,.67-.93,3.27,3.27,0,0,1,.95-.65,3,3,0,0,1,1.13-.26l1.6-.05,1.61,0,1.6,0,1.61,0V12.51c-.56,0-1.12,0-1.67.06l-3.34.13-1.67.07a5,5,0,0,0-1.86.48A5.3,5.3,0,0,0,265,15.94a4.76,4.76,0,0,0-.37,1.87,4.54,4.54,0,0,0,.4,1.86,5.21,5.21,0,0,0,1.08,1.55,5.79,5.79,0,0,0,1.58,1.09,4.93,4.93,0,0,0,1.89.44v0h0l.38,0h1.15l.13,0a.31.31,0,0,1,.18.19.34.34,0,0,1,0,.28.41.41,0,0,1-.07.11.33.33,0,0,1-.24.1l-.55,0-.55,0-.54,0A5,5,0,0,1,269,23.45Zm2.83-6.06h4.32v-2l-1.65,0-1.65,0-1.64,0-1.65,0h-.08a2.17,2.17,0,0,0-.87.24,2.43,2.43,0,0,0-1.18,3.1,2.45,2.45,0,0,0,1.23,1.28,2.46,2.46,0,0,0,.9.2h2.59a3.14,3.14,0,0,1,1.36,1.11,2.77,2.77,0,0,1,.42.82,2.85,2.85,0,0,1-.09,2.11,3,3,0,0,1-.66.94,3.1,3.1,0,0,1-1,.6,2.55,2.55,0,0,1-1.13.17c-1.07-.05-2.13-.12-3.2-.18l-1.6-.1-1.6-.11v2.05l1.66.14L268,28l3.33.25a4.37,4.37,0,0,0,1.86-.28,4.42,4.42,0,0,0,1.53-1,5.15,5.15,0,0,0,1-1.61,5.36,5.36,0,0,0,.37-2,5.3,5.3,0,0,0-1.48-3.69,5.14,5.14,0,0,0-1.58-1.11,4.57,4.57,0,0,0-1.89-.39v0h-1.54a.28.28,0,0,1-.24-.1.36.36,0,0,1-.08-.38.39.39,0,0,1,.18-.2.22.22,0,0,1,.14,0h2.18Z" style="fill:#0f0e43"/>
   <path d="M407.59,46.55l4.14,6.2H423l-4.13-6.2Zm34.36,0-4.14,6.2h11.31l4.14-6.2Zm-360.48.53v5.67h55.3a5.42,5.42,0,0,0-5-5.67Zm61.06,0v5.67h36.39V47.08Zm46.67,0a5.42,5.42,0,0,0-5.08,5.67h43V47.08Zm48.09,0a5.43,5.43,0,0,0-5,5.67H273a5.41,5.41,0,0,0-5.11-5.67H237.29Zm59.61,0v5.67h42.54a5.43,5.43,0,0,0-5.05-5.67Zm53.94,0v0a5.45,5.45,0,0,0-4.69,5.64h41.59a5.43,5.43,0,0,0-5.05-5.67H350.84Zm43,0v5.67H404V47.08Zm63.42,0v5.67h36.39V47.08ZM58.16,52a6.56,6.56,0,0,0-6.56,6.55h0A6.56,6.56,0,1,0,58.18,52Zm455.92,0a6.58,6.58,0,1,0,6.56,6.56A6.57,6.57,0,0,0,514.08,52ZM81.47,54.64V71.48h10.1V54.64Zm22.48,0V71.48h10.13V54.64Zm22.51,0V71.48h10.22V54.64Zm16.07,0V65.42c.14,3.37,3.23,6.06,7,6.06h29.39V65.81H155a2.25,2.25,0,0,1-2.25-2.27V62.12h24.4v-5.2H155a2.25,2.25,0,0,1-2.25-2.28H142.53Zm41.59,0v11h0a6.64,6.64,0,0,0,6.32,5.85v0h29.87v0a7.27,7.27,0,0,0-.48-14.53.4.4,0,0,0-.11,0H202.29v5.19H214.9A1.85,1.85,0,0,1,216.73,64a1.82,1.82,0,0,1-1.83,1.83H196.17A1.83,1.83,0,0,1,194.34,64V54.64Zm48.12,0V71.48h10.19V54.64Zm30.52,0v5H244.24v6.61h18.52v5.2H273V54.64Zm34.14,0V71.48h10.2V54.64Zm32.32,0V64a1.82,1.82,0,0,1-1.8,1.83H308.51v5.67H333v0c3.59-.27,6.41-3,6.41-6.26V54.64Zm16.93,0V71.48h10.19V54.64Zm31.37,0v3.25a1.82,1.82,0,0,1-1.83,1.77H358.61v6.62h14.24l5.17,5.2h12.2l-7-7.06a7.28,7.28,0,0,0,4.55-6.74v-3H377.52Zm16.28,0V71.48H404V54.64Zm19.17,0,11.22,16.84h12.47l11.22-16.84H436.57l-6.15,9.22-6.14-9.22Zm44.25,0V65.42c.13,3.37,3.22,6.06,7,6.06h29.39V65.81H469.68a2.27,2.27,0,0,1-2.27-2.27V62.12h24.4v-5.2H469.68a2.28,2.28,0,0,1-2.27-2.28Z" style="fill:url(#c)"/>
   <path d="M4.25,105H21.7l6.73,26.13L35.12,105H52.56v43H41.69V115.18l-8.38,32.75H23.48l-8.36-32.75v32.75H4.25Z" style="fill:#38b5e5"/>
   <path d="M87.43,140.84H72.36l-2.09,7.09H56.72L72.86,105H87.34l16.14,43H89.58Zm-2.75-9.29-4.74-15.44-4.69,15.44Z" style="fill:#38b5e5"/>
   <path d="M105.38,133.72l12.63-.79a9.63,9.63,0,0,0,1.67,4.69,7,7,0,0,0,5.86,2.61,6.5,6.5,0,0,0,4.38-1.34,4,4,0,0,0,1.54-3.09,4,4,0,0,0-1.47-3c-1-.88-3.24-1.71-6.8-2.49q-8.73-2-12.45-5.21a10.49,10.49,0,0,1-3.75-8.29,11.28,11.28,0,0,1,1.92-6.26,12.78,12.78,0,0,1,5.77-4.63q3.85-1.68,10.56-1.68,8.24,0,12.56,3.06t5.14,9.74l-12.51.73a5.85,5.85,0,0,0-6.5-5.53,5.28,5.28,0,0,0-3.49,1,3,3,0,0,0-1.17,2.39,2.4,2.4,0,0,0,1,1.84c.63.57,2.11,1.1,4.46,1.58q8.7,1.88,12.46,3.8a13.06,13.06,0,0,1,5.48,4.76,12.08,12.08,0,0,1,1.72,6.36,13.62,13.62,0,0,1-2.29,7.61,14.22,14.22,0,0,1-6.39,5.29,25.8,25.8,0,0,1-10.34,1.8q-11,0-15.17-4.22A16.58,16.58,0,0,1,105.38,133.72Z" style="fill:#38b5e5"/>
   <path d="M148,105h40.34v10.61H174.81v32.34H161.54V115.59H148Z" style="fill:#38b5e5"/>
   <path d="M194.33,105h35.56v9.17H207.63V121h20.65v8.76H207.63v8.46h22.91v9.73H194.33Z" style="fill:#38b5e5"/>
   <path d="M237.86,147.93V105H260a31.81,31.81,0,0,1,9.4,1.06,10,10,0,0,1,5.25,3.91,11.82,11.82,0,0,1,2,7,11.47,11.47,0,0,1-5.72,10.38,16.07,16.07,0,0,1-4.66,1.7,12.93,12.93,0,0,1,3.46,1.58,13.13,13.13,0,0,1,2.12,2.26,16.19,16.19,0,0,1,1.86,2.67l6.43,12.44h-15L258,134.81a10.15,10.15,0,0,0-2.4-3.32,5.63,5.63,0,0,0-3.26-1h-1.17v17.43Zm13.33-25.55h5.6a19.92,19.92,0,0,0,3.51-.58,3.56,3.56,0,0,0,2.16-1.35,4,4,0,0,0,.83-2.49,3.93,3.93,0,0,0-1.32-3.19q-1.32-1.12-5-1.12h-5.83Z" style="fill:#38b5e5"/>
   <path d="M302.05,133.72l12.63-.79a9.63,9.63,0,0,0,1.67,4.69,7,7,0,0,0,5.86,2.61,6.5,6.5,0,0,0,4.38-1.34,4,4,0,0,0,1.53-3.09,3.94,3.94,0,0,0-1.46-3c-1-.88-3.24-1.71-6.8-2.49q-8.73-2-12.45-5.21a10.49,10.49,0,0,1-3.75-8.29,11.28,11.28,0,0,1,1.92-6.26,12.78,12.78,0,0,1,5.77-4.63q3.86-1.68,10.56-1.68,8.23,0,12.56,3.06t5.14,9.74l-12.51.73a5.85,5.85,0,0,0-6.5-5.53,5.28,5.28,0,0,0-3.49,1,3,3,0,0,0-1.17,2.39,2.4,2.4,0,0,0,1,1.84c.63.57,2.11,1.1,4.46,1.58q8.7,1.88,12.46,3.8a13.06,13.06,0,0,1,5.48,4.76A12.08,12.08,0,0,1,341,134a13.62,13.62,0,0,1-2.29,7.61,14.22,14.22,0,0,1-6.39,5.29,25.8,25.8,0,0,1-10.34,1.8q-11,0-15.17-4.22A16.58,16.58,0,0,1,302.05,133.72Z" style="fill:#38b5e5"/>
   <path d="M343.36,105H358.1l8.65,14.49L375.42,105h14.67l-16.7,25v18h-13.3v-18Z" style="fill:#38b5e5"/>
   <path d="M389.47,133.72l12.63-.79a9.63,9.63,0,0,0,1.67,4.69,7,7,0,0,0,5.86,2.61,6.5,6.5,0,0,0,4.38-1.34,4,4,0,0,0,1.54-3.09,4,4,0,0,0-1.47-3c-1-.88-3.24-1.71-6.79-2.49q-8.75-2-12.46-5.21a10.49,10.49,0,0,1-3.75-8.29,11.28,11.28,0,0,1,1.92-6.26,12.84,12.84,0,0,1,5.77-4.63q3.86-1.68,10.57-1.68,8.22,0,12.55,3.06t5.14,9.74l-12.51.73a5.84,5.84,0,0,0-6.5-5.53,5.28,5.28,0,0,0-3.49,1,3,3,0,0,0-1.17,2.39,2.38,2.38,0,0,0,1,1.84c.62.57,2.11,1.1,4.45,1.58q8.7,1.88,12.47,3.8a13.09,13.09,0,0,1,5.47,4.76,12,12,0,0,1,1.72,6.36,13.55,13.55,0,0,1-2.29,7.61,14.25,14.25,0,0,1-6.38,5.29,25.89,25.89,0,0,1-10.35,1.8q-10.95,0-15.17-4.22A16.63,16.63,0,0,1,389.47,133.72Z" style="fill:#38b5e5"/>
   <path d="M432.1,105h40.34v10.61H458.91v32.34H445.63V115.59H432.1Z" style="fill:#38b5e5"/>
   <path d="M478.42,105H514v9.17H491.72V121h20.65v8.76H491.72v8.46h22.91v9.73H478.42Z" style="fill:#38b5e5"/>
   <path d="M521.63,105h17.45l6.74,26.13L552.5,105h17.44v43H559.07V115.18l-8.37,32.75h-9.84l-8.36-32.75v32.75H521.63Z" style="fill:#38b5e5"/>
   <path d="M101.94,202.35l11.63,3.52a21.43,21.43,0,0,1-3.69,8.17,16,16,0,0,1-6.26,5,23.27,23.27,0,0,1-9.5,1.67,27.68,27.68,0,0,1-11.44-2A18.16,18.16,0,0,1,75,211.47q-3.21-5.13-3.22-13.12,0-10.65,5.67-16.38t16-5.72q8.11,0,12.76,3.28t6.9,10.08l-11.72,2.61a10.13,10.13,0,0,0-1.29-2.88A7.71,7.71,0,0,0,97.43,187a8.38,8.38,0,0,0-10.52,2.81q-1.81,2.69-1.82,8.46,0,7.14,2.17,9.78a8.55,8.55,0,0,0,11.85.51A13.2,13.2,0,0,0,101.94,202.35Z" style="fill:#38b5e5"/>
   <path d="M118.34,198.49q0-10.53,5.86-16.38t16.32-5.86q10.72,0,16.53,5.76t5.8,16.12q0,7.53-2.54,12.35A18.11,18.11,0,0,1,153,218a24.18,24.18,0,0,1-11.94,2.68,27.56,27.56,0,0,1-12-2.31A18.17,18.17,0,0,1,121.3,211,24.33,24.33,0,0,1,118.34,198.49Zm13.28,0c0,4.34.8,7.45,2.41,9.35a9.16,9.16,0,0,0,13.2.06q2.34-2.79,2.35-10,0-6.08-2.45-8.86a8.35,8.35,0,0,0-6.64-2.8,8,8,0,0,0-6.44,2.84C132.43,191,131.62,194.17,131.62,198.54Z" style="fill:#38b5e5"/>
   <path d="M170.08,177h12.4l16.17,23.76V177h12.51v43H198.65l-16.09-23.58v23.58H170.08Z" style="fill:#38b5e5"/>
   <path d="M215.76,177h13.87l9.67,30.91L248.84,177h13.47l-15.95,43H232Z" style="fill:#38b5e5"/>
   <path d="M266.62,177h35.56v9.17H279.92V193h20.65v8.76H279.92v8.46h22.91v9.73H266.62Z" style="fill:#38b5e5"/>
   <path d="M310.15,219.93V177h22.12a31.81,31.81,0,0,1,9.4,1.06,10,10,0,0,1,5.25,3.91,11.82,11.82,0,0,1,2,7,11.49,11.49,0,0,1-5.71,10.38,16.26,16.26,0,0,1-4.67,1.7,12.93,12.93,0,0,1,3.46,1.58,13.13,13.13,0,0,1,2.12,2.26,16.19,16.19,0,0,1,1.86,2.67l6.43,12.44h-15l-7.09-13.12a10.15,10.15,0,0,0-2.4-3.32,5.63,5.63,0,0,0-3.26-1h-1.17v17.43Zm13.33-25.55h5.6a19.92,19.92,0,0,0,3.51-.58,3.56,3.56,0,0,0,2.16-1.35,4,4,0,0,0,.83-2.49,3.93,3.93,0,0,0-1.32-3.19q-1.32-1.12-4.95-1.12h-5.83Z" style="fill:#38b5e5"/>
   <path d="M353.1,177h40.34v10.61H379.91v32.34H366.64V187.59H353.1Z" style="fill:#38b5e5"/>
   <path d="M399.42,177H435v9.17H412.72V193h20.65v8.76H412.72v8.46h22.91v9.73H399.42Z" style="fill:#38b5e5"/>
   <path d="M443,219.93V177h22.12a31.93,31.93,0,0,1,9.41,1.06,10,10,0,0,1,5.24,3.91,13.2,13.2,0,0,1,.47,13.12,12,12,0,0,1-4.19,4.21,16.3,16.3,0,0,1-4.66,1.7,8.94,8.94,0,0,1,5.57,3.84,16.19,16.19,0,0,1,1.86,2.67l6.43,12.44h-15l-7.09-13.12a10.15,10.15,0,0,0-2.4-3.32,5.6,5.6,0,0,0-3.25-1h-1.18v17.43Zm13.33-25.55h5.6a19.84,19.84,0,0,0,3.52-.58,3.57,3.57,0,0,0,2.15-1.35,4.37,4.37,0,0,0-.48-5.68q-1.32-1.12-5-1.12h-5.83Z" style="fill:#38b5e5"/>
   <path d="M487,183.68v-6.1h-2.32v-1.06h5.86v1.06h-2.34v6.1Zm4.34,0v-7.16h1.75l1.81,5.72,1.75-5.72h1.73v7.16H497.3v-6l-1.85,6h-1.08l-1.93-6.1v6.1Z" style="fill:#38b5e5"/>
</svg>